{
	"asset":{
		"generator":"Khronos glTF Blender I/O v4.5.47",
		"version":"2.0"
	},
	"extensionsUsed":[
		"KHR_materials_emissive_strength"
	],
	"scene":0,
	"scenes":[
		{
			"name":"Scene",
			"nodes":[
				13
			]
		}
	],
	"nodes":[
		{
			"name":"jaw",
			"rotation":[
				1,
				0,
				-4.371138473402425e-08,
				0
			],
			"scale":[
				1,
				0.9999997615814209,
				1
			],
			"translation":[
				0,
				0.05000007152557373,
				0
			]
		},
		{
			"mesh":1,
			"name":"Eye",
			"rotation":[
				1.4551916963090328e-11,
				1.1596058835383616e-10,
				-1.1368683772161603e-13,
				1
			],
			"scale":[
				0.9999999403953552,
				0.9999999403953552,
				0.9999999403953552
			],
			"translation":[
				0.16999998688697815,
				0.25,
				-0.14999999105930328
			]
		},
		{
			"children":[
				0,
				1
			],
			"name":"head",
			"translation":[
				0,
				0.25,
				0
			]
		},
		{
			"name":"upper_arm.L",
			"rotation":[
				-0.7030693292617798,
				-0.456905722618103,
				-0.456905722618103,
				0.296930730342865
			],
			"scale":[
				0.9999999403953552,
				0.9999999403953552,
				0.9999999403953552
			],
			"translation":[
				0.4000000059604645,
				0.20000004768371582,
				0
			]
		},
		{
			"name":"upper_arm.R",
			"rotation":[
				-0.7030693292617798,
				0.456905722618103,
				0.456905722618103,
				0.296930730342865
			],
			"scale":[
				0.9999999403953552,
				0.9999999403953552,
				0.9999999403953552
			],
			"translation":[
				-0.4000000059604645,
				0.20000004768371582,
				0
			]
		},
		{
			"children":[
				2,
				3,
				4
			],
			"name":"chest",
			"translation":[
				0,
				0.44999998807907104,
				0
			]
		},
		{
			"children":[
				5
			],
			"name":"spine",
			"translation":[
				0,
				0.44999998807907104,
				0
			]
		},
		{
			"name":"thigh.L",
			"rotation":[
				1,
				0,
				-4.371138828673793e-08,
				0
			],
			"translation":[
				0.18000000715255737,
				0.3999999761581421,
				0
			]
		},
		{
			"name":"thigh.R",
			"rotation":[
				1,
				0,
				-4.371138828673793e-08,
				0
			],
			"translation":[
				-0.18000000715255737,
				0.3999999761581421,
				0
			]
		},
		{
			"children":[
				6,
				7,
				8
			],
			"name":"hips",
			"translation":[
				0,
				0.25,
				0
			]
		},
		{
			"children":[
				9
			],
			"name":"root"
		},
		{
			"name":"neutral_bone",
			"rotation":[
				-0.7071067690849304,
				0,
				0,
				0.7071067690849304
			]
		},
		{
			"mesh":0,
			"name":"CharacterMesh",
			"skin":0
		},
		{
			"children":[
				12,
				10,
				11
			],
			"name":"Armature"
		}
	],
	"animations":[
		{
			"channels":[
				{
					"sampler":0,
					"target":{
						"node":10,
						"path":"translation"
					}
				},
				{
					"sampler":1,
					"target":{
						"node":10,
						"path":"rotation"
					}
				},
				{
					"sampler":2,
					"target":{
						"node":10,
						"path":"scale"
					}
				},
				{
					"sampler":3,
					"target":{
						"node":9,
						"path":"translation"
					}
				},
				{
					"sampler":4,
					"target":{
						"node":9,
						"path":"rotation"
					}
				},
				{
					"sampler":5,
					"target":{
						"node":9,
						"path":"scale"
					}
				},
				{
					"sampler":6,
					"target":{
						"node":6,
						"path":"translation"
					}
				},
				{
					"sampler":7,
					"target":{
						"node":6,
						"path":"rotation"
					}
				},
				{
					"sampler":8,
					"target":{
						"node":6,
						"path":"scale"
					}
				},
				{
					"sampler":9,
					"target":{
						"node":5,
						"path":"translation"
					}
				},
				{
					"sampler":10,
					"target":{
						"node":5,
						"path":"rotation"
					}
				},
				{
					"sampler":11,
					"target":{
						"node":5,
						"path":"scale"
					}
				},
				{
					"sampler":12,
					"target":{
						"node":2,
						"path":"translation"
					}
				},
				{
					"sampler":13,
					"target":{
						"node":2,
						"path":"rotation"
					}
				},
				{
					"sampler":14,
					"target":{
						"node":2,
						"path":"scale"
					}
				},
				{
					"sampler":15,
					"target":{
						"node":0,
						"path":"translation"
					}
				},
				{
					"sampler":16,
					"target":{
						"node":0,
						"path":"rotation"
					}
				},
				{
					"sampler":17,
					"target":{
						"node":0,
						"path":"scale"
					}
				},
				{
					"sampler":18,
					"target":{
						"node":3,
						"path":"translation"
					}
				},
				{
					"sampler":19,
					"target":{
						"node":3,
						"path":"rotation"
					}
				},
				{
					"sampler":20,
					"target":{
						"node":3,
						"path":"scale"
					}
				},
				{
					"sampler":21,
					"target":{
						"node":4,
						"path":"translation"
					}
				},
				{
					"sampler":22,
					"target":{
						"node":4,
						"path":"rotation"
					}
				},
				{
					"sampler":23,
					"target":{
						"node":4,
						"path":"scale"
					}
				},
				{
					"sampler":24,
					"target":{
						"node":7,
						"path":"translation"
					}
				},
				{
					"sampler":25,
					"target":{
						"node":7,
						"path":"rotation"
					}
				},
				{
					"sampler":26,
					"target":{
						"node":7,
						"path":"scale"
					}
				},
				{
					"sampler":27,
					"target":{
						"node":8,
						"path":"translation"
					}
				},
				{
					"sampler":28,
					"target":{
						"node":8,
						"path":"rotation"
					}
				},
				{
					"sampler":29,
					"target":{
						"node":8,
						"path":"scale"
					}
				}
			],
			"name":"Idle_Looping",
			"samplers":[
				{
					"input":17,
					"interpolation":"STEP",
					"output":18
				},
				{
					"input":17,
					"interpolation":"STEP",
					"output":19
				},
				{
					"input":17,
					"interpolation":"STEP",
					"output":20
				},
				{
					"input":17,
					"interpolation":"STEP",
					"output":21
				},
				{
					"input":22,
					"interpolation":"LINEAR",
					"output":23
				},
				{
					"input":17,
					"interpolation":"STEP",
					"output":24
				},
				{
					"input":17,
					"interpolation":"STEP",
					"output":25
				},
				{
					"input":17,
					"interpolation":"STEP",
					"output":19
				},
				{
					"input":17,
					"interpolation":"STEP",
					"output":20
				},
				{
					"input":17,
					"interpolation":"STEP",
					"output":26
				},
				{
					"input":22,
					"interpolation":"LINEAR",
					"output":27
				},
				{
					"input":17,
					"interpolation":"STEP",
					"output":28
				},
				{
					"input":17,
					"interpolation":"STEP",
					"output":29
				},
				{
					"input":22,
					"interpolation":"LINEAR",
					"output":30
				},
				{
					"input":17,
					"interpolation":"STEP",
					"output":20
				},
				{
					"input":17,
					"interpolation":"STEP",
					"output":31
				},
				{
					"input":22,
					"interpolation":"LINEAR",
					"output":32
				},
				{
					"input":17,
					"interpolation":"STEP",
					"output":33
				},
				{
					"input":17,
					"interpolation":"STEP",
					"output":34
				},
				{
					"input":22,
					"interpolation":"LINEAR",
					"output":35
				},
				{
					"input":17,
					"interpolation":"STEP",
					"output":36
				},
				{
					"input":17,
					"interpolation":"STEP",
					"output":37
				},
				{
					"input":22,
					"interpolation":"LINEAR",
					"output":38
				},
				{
					"input":17,
					"interpolation":"STEP",
					"output":39
				},
				{
					"input":17,
					"interpolation":"STEP",
					"output":40
				},
				{
					"input":17,
					"interpolation":"STEP",
					"output":41
				},
				{
					"input":17,
					"interpolation":"STEP",
					"output":20
				},
				{
					"input":17,
					"interpolation":"STEP",
					"output":42
				},
				{
					"input":17,
					"interpolation":"STEP",
					"output":41
				},
				{
					"input":17,
					"interpolation":"STEP",
					"output":20
				}
			]
		}
	],
	"materials":[
		{
			"doubleSided":true,
			"name":"Body_PBR",
			"pbrMetallicRoughness":{
				"baseColorFactor":[
					0.07999999821186066,
					0.07999999821186066,
					0.10000000149011612,
					1
				],
				"metallicFactor":0.15000000596046448,
				"roughnessFactor":0.44999998807907104
			}
		},
		{
			"doubleSided":true,
			"name":"Trim",
			"pbrMetallicRoughness":{
				"baseColorFactor":[
					0.05000000074505806,
					0.05000000074505806,
					0.05999999865889549,
					1
				],
				"metallicFactor":0.800000011920929,
				"roughnessFactor":0.10000000149011612
			}
		},
		{
			"doubleSided":true,
			"emissiveFactor":[
				1,
				0.20000000298023224,
				0.8999999761581421
			],
			"extensions":{
				"KHR_materials_emissive_strength":{
					"emissiveStrength":2
				}
			},
			"name":"Eye_Emissive",
			"pbrMetallicRoughness":{
				"baseColorFactor":[
					1,
					0.20000000298023224,
					0.8999999761581421,
					1
				],
				"metallicFactor":0,
				"roughnessFactor":0.5
			}
		}
	],
	"meshes":[
		{
			"name":"Cube",
			"primitives":[
				{
					"attributes":{
						"POSITION":0,
						"NORMAL":1,
						"TEXCOORD_0":2,
						"JOINTS_0":3,
						"WEIGHTS_0":4
					},
					"indices":5,
					"material":0
				},
				{
					"attributes":{
						"POSITION":6,
						"NORMAL":7,
						"TEXCOORD_0":8,
						"JOINTS_0":9,
						"WEIGHTS_0":10
					},
					"indices":11,
					"material":1
				}
			]
		},
		{
			"name":"Sphere.001",
			"primitives":[
				{
					"attributes":{
						"POSITION":13,
						"NORMAL":14,
						"TEXCOORD_0":15
					},
					"indices":16,
					"material":2
				}
			]
		}
	],
	"skins":[
		{
			"inverseBindMatrices":12,
			"joints":[
				10,
				9,
				6,
				5,
				2,
				0,
				3,
				4,
				7,
				8,
				11
			],
			"name":"Armature"
		}
	],
	"accessors":[
		{
			"bufferView":0,
			"componentType":5126,
			"count":2416,
			"max":[
				0.7400000095367432,
				2,
				0.2999998927116394
			],
			"min":[
				-0.7400000095367432,
				-0.34999990463256836,
				-0.30000004172325134
			],
			"type":"VEC3"
		},
		{
			"bufferView":1,
			"componentType":5126,
			"count":2416,
			"type":"VEC3"
		},
		{
			"bufferView":2,
			"componentType":5126,
			"count":2416,
			"type":"VEC2"
		},
		{
			"bufferView":3,
			"componentType":5121,
			"count":2416,
			"type":"VEC4"
		},
		{
			"bufferView":4,
			"componentType":5126,
			"count":2416,
			"type":"VEC4"
		},
		{
			"bufferView":5,
			"componentType":5123,
			"count":3672,
			"type":"SCALAR"
		},
		{
			"bufferView":6,
			"componentType":5126,
			"count":24,
			"max":[
				0.375,
				1.9249999523162842,
				0.5350000858306885
			],
			"min":[
				-0.375,
				1.5750000476837158,
				-0.2150000035762787
			],
			"type":"VEC3"
		},
		{
			"bufferView":7,
			"componentType":5126,
			"count":24,
			"type":"VEC3"
		},
		{
			"bufferView":8,
			"componentType":5126,
			"count":24,
			"type":"VEC2"
		},
		{
			"bufferView":9,
			"componentType":5121,
			"count":24,
			"type":"VEC4"
		},
		{
			"bufferView":10,
			"componentType":5126,
			"count":24,
			"type":"VEC4"
		},
		{
			"bufferView":11,
			"componentType":5123,
			"count":36,
			"type":"SCALAR"
		},
		{
			"bufferView":12,
			"componentType":5126,
			"count":11,
			"type":"MAT4"
		},
		{
			"bufferView":13,
			"componentType":5126,
			"count":480,
			"max":[
				0.06999999284744263,
				0.07000000029802322,
				0.06999998539686203
			],
			"min":[
				-0.06999998539686203,
				-0.07000000029802322,
				-0.06999998539686203
			],
			"type":"VEC3"
		},
		{
			"bufferView":14,
			"componentType":5126,
			"count":480,
			"type":"VEC3"
		},
		{
			"bufferView":15,
			"componentType":5126,
			"count":480,
			"type":"VEC2"
		},
		{
			"bufferView":16,
			"componentType":5123,
			"count":672,
			"type":"SCALAR"
		},
		{
			"bufferView":17,
			"componentType":5126,
			"count":2,
			"max":[
				5.041666666666667
			],
			"min":[
				0.041666666666666664
			],
			"type":"SCALAR"
		},
		{
			"bufferView":18,
			"componentType":5126,
			"count":2,
			"type":"VEC3"
		},
		{
			"bufferView":19,
			"componentType":5126,
			"count":2,
			"type":"VEC4"
		},
		{
			"bufferView":20,
			"componentType":5126,
			"count":2,
			"type":"VEC3"
		},
		{
			"bufferView":21,
			"componentType":5126,
			"count":2,
			"type":"VEC3"
		},
		{
			"bufferView":22,
			"componentType":5126,
			"count":121,
			"max":[
				5.041666666666667
			],
			"min":[
				0.041666666666666664
			],
			"type":"SCALAR"
		},
		{
			"bufferView":23,
			"componentType":5126,
			"count":121,
			"type":"VEC4"
		},
		{
			"bufferView":24,
			"componentType":5126,
			"count":2,
			"type":"VEC3"
		},
		{
			"bufferView":25,
			"componentType":5126,
			"count":2,
			"type":"VEC3"
		},
		{
			"bufferView":26,
			"componentType":5126,
			"count":2,
			"type":"VEC3"
		},
		{
			"bufferView":27,
			"componentType":5126,
			"count":121,
			"type":"VEC4"
		},
		{
			"bufferView":28,
			"componentType":5126,
			"count":2,
			"type":"VEC3"
		},
		{
			"bufferView":29,
			"componentType":5126,
			"count":2,
			"type":"VEC3"
		},
		{
			"bufferView":30,
			"componentType":5126,
			"count":121,
			"type":"VEC4"
		},
		{
			"bufferView":31,
			"componentType":5126,
			"count":2,
			"type":"VEC3"
		},
		{
			"bufferView":32,
			"componentType":5126,
			"count":121,
			"type":"VEC4"
		},
		{
			"bufferView":33,
			"componentType":5126,
			"count":2,
			"type":"VEC3"
		},
		{
			"bufferView":34,
			"componentType":5126,
			"count":2,
			"type":"VEC3"
		},
		{
			"bufferView":35,
			"componentType":5126,
			"count":121,
			"type":"VEC4"
		},
		{
			"bufferView":36,
			"componentType":5126,
			"count":2,
			"type":"VEC3"
		},
		{
			"bufferView":37,
			"componentType":5126,
			"count":2,
			"type":"VEC3"
		},
		{
			"bufferView":38,
			"componentType":5126,
			"count":121,
			"type":"VEC4"
		},
		{
			"bufferView":39,
			"componentType":5126,
			"count":2,
			"type":"VEC3"
		},
		{
			"bufferView":40,
			"componentType":5126,
			"count":2,
			"type":"VEC3"
		},
		{
			"bufferView":41,
			"componentType":5126,
			"count":2,
			"type":"VEC4"
		},
		{
			"bufferView":42,
			"componentType":5126,
			"count":2,
			"type":"VEC3"
		}
	],
	"bufferViews":[
		{
			"buffer":0,
			"byteLength":28992,
			"byteOffset":0,
			"target":34962
		},
		{
			"buffer":0,
			"byteLength":28992,
			"byteOffset":28992,
			"target":34962
		},
		{
			"buffer":0,
			"byteLength":19328,
			"byteOffset":57984,
			"target":34962
		},
		{
			"buffer":0,
			"byteLength":9664,
			"byteOffset":77312,
			"target":34962
		},
		{
			"buffer":0,
			"byteLength":38656,
			"byteOffset":86976,
			"target":34962
		},
		{
			"buffer":0,
			"byteLength":7344,
			"byteOffset":125632,
			"target":34963
		},
		{
			"buffer":0,
			"byteLength":288,
			"byteOffset":132976,
			"target":34962
		},
		{
			"buffer":0,
			"byteLength":288,
			"byteOffset":133264,
			"target":34962
		},
		{
			"buffer":0,
			"byteLength":192,
			"byteOffset":133552,
			"target":34962
		},
		{
			"buffer":0,
			"byteLength":96,
			"byteOffset":133744,
			"target":34962
		},
		{
			"buffer":0,
			"byteLength":384,
			"byteOffset":133840,
			"target":34962
		},
		{
			"buffer":0,
			"byteLength":72,
			"byteOffset":134224,
			"target":34963
		},
		{
			"buffer":0,
			"byteLength":704,
			"byteOffset":134296
		},
		{
			"buffer":0,
			"byteLength":5760,
			"byteOffset":135000,
			"target":34962
		},
		{
			"buffer":0,
			"byteLength":5760,
			"byteOffset":140760,
			"target":34962
		},
		{
			"buffer":0,
			"byteLength":3840,
			"byteOffset":146520,
			"target":34962
		},
		{
			"buffer":0,
			"byteLength":1344,
			"byteOffset":150360,
			"target":34963
		},
		{
			"buffer":0,
			"byteLength":8,
			"byteOffset":151704
		},
		{
			"buffer":0,
			"byteLength":24,
			"byteOffset":151712
		},
		{
			"buffer":0,
			"byteLength":32,
			"byteOffset":151736
		},
		{
			"buffer":0,
			"byteLength":24,
			"byteOffset":151768
		},
		{
			"buffer":0,
			"byteLength":24,
			"byteOffset":151792
		},
		{
			"buffer":0,
			"byteLength":484,
			"byteOffset":151816
		},
		{
			"buffer":0,
			"byteLength":1936,
			"byteOffset":152300
		},
		{
			"buffer":0,
			"byteLength":24,
			"byteOffset":154236
		},
		{
			"buffer":0,
			"byteLength":24,
			"byteOffset":154260
		},
		{
			"buffer":0,
			"byteLength":24,
			"byteOffset":154284
		},
		{
			"buffer":0,
			"byteLength":1936,
			"byteOffset":154308
		},
		{
			"buffer":0,
			"byteLength":24,
			"byteOffset":156244
		},
		{
			"buffer":0,
			"byteLength":24,
			"byteOffset":156268
		},
		{
			"buffer":0,
			"byteLength":1936,
			"byteOffset":156292
		},
		{
			"buffer":0,
			"byteLength":24,
			"byteOffset":158228
		},
		{
			"buffer":0,
			"byteLength":1936,
			"byteOffset":158252
		},
		{
			"buffer":0,
			"byteLength":24,
			"byteOffset":160188
		},
		{
			"buffer":0,
			"byteLength":24,
			"byteOffset":160212
		},
		{
			"buffer":0,
			"byteLength":1936,
			"byteOffset":160236
		},
		{
			"buffer":0,
			"byteLength":24,
			"byteOffset":162172
		},
		{
			"buffer":0,
			"byteLength":24,
			"byteOffset":162196
		},
		{
			"buffer":0,
			"byteLength":1936,
			"byteOffset":162220
		},
		{
			"buffer":0,
			"byteLength":24,
			"byteOffset":164156
		},
		{
			"buffer":0,
			"byteLength":24,
			"byteOffset":164180
		},
		{
			"buffer":0,
			"byteLength":32,
			"byteOffset":164204
		},
		{
			"buffer":0,
			"byteLength":24,
			"byteOffset":164236
		}
	],
	"buffers":[
		{
			"byteLength":164260,
			"uri":"cyberpunk_idle.bin"
		}
	]
}
